<svg xmlns="http://www.w3.org/2000/svg" viewBox="0 0 64 64">
  <rect x="10" y="10" width="44" height="32" rx="5" fill="#5F6B7A"/>
  <path d="M32 10h17a5 5 0 0 1 5 5v27H32z" fill="#4A5463"/>
  <rect x="14" y="14" width="36" height="24" rx="2" fill="#59C3F4"/>
  <path d="M32 14h16a2 2 0 0 1 2 2v22H32z" fill="#2FA6E2"/>
  <path d="M4 44h56l-4 8a4 4 0 0 1-3.6 2H11.6A4 4 0 0 1 8 52z" fill="#C3CAD3"/>
  <path d="M32 44h28l-4 8a4 4 0 0 1-3.6 2H32z" fill="#A9B2BE"/>
  <rect x="26" y="45" width="12" height="3" rx="1.5" fill="#8A95A3"/>
  <path d="M18 20l6-3M18 26l10-5" stroke="#B6E6FB" stroke-width="2.5" stroke-linecap="round"/>
</svg>
