<svg xmlns="http://www.w3.org/2000/svg" viewBox="0 0 64 64">
  <rect x="20" y="8" width="20" height="10" rx="4" fill="#5F6B7A"/>
  <path d="M30 8h6a4 4 0 0 1 4 4v2a4 4 0 0 1-4 4h-6z" fill="#4A5463"/>
  <rect x="36" y="10" width="12" height="6" rx="3" fill="#5F6B7A"/>
  <path d="M24 18h8l-2 8h-5z" fill="#4A5463"/>
  <rect x="26" y="18" width="10" height="6" fill="#5F6B7A"/><rect x="31" y="18" width="5" height="6" fill="#4A5463"/>
  <path d="M18 30a6 6 0 0 1 6-6h14a6 6 0 0 1 6 6v24a5 5 0 0 1-5 5H23a5 5 0 0 1-5-5z" fill="#67E0E3"/>
  <path d="M31 24h7a6 6 0 0 1 6 6v24a5 5 0 0 1-5 5h-8z" fill="#3CC4CA"/>
  <rect x="18" y="36" width="26" height="11" fill="#FFB3BE"/><rect x="31" y="36" width="13" height="11" fill="#F78DA0"/>
  <path d="M52 8l5-3M53 13h6M52 18l5 3" stroke="#59C3F4" stroke-width="2.5" stroke-linecap="round"/>
  <rect x="22" y="28" width="4" height="5" rx="2" fill="#B9F3F4"/>
</svg>
